<svg xmlns="http://www.w3.org/2000/svg" xmlns:xlink="http://www.w3.org/1999/xlink" width="1080" zoomAndPan="magnify" viewBox="0 0 810 809.999993" height="1080" preserveAspectRatio="xMidYMid meet" version="1.0"><defs><g/><clipPath id="1f4f9b1145"><rect x="0" width="763" y="0" height="119"/></clipPath></defs><g transform="matrix(1, 0, 0, 1, 24, 345)"><g clip-path="url(#1f4f9b1145)"><g fill="#00283d" fill-opacity="1"><g transform="translate(0.412108, 86.193645)"><g><path d="M 5.40625 0 L 5.40625 -61.296875 L 25.8125 -61.296875 L 25.8125 0 Z M 29.046875 -49.046875 L 29.046875 -61.296875 L 52.375 -61.296875 L 64.65625 -49.046875 L 64.65625 -30.671875 L 55.234375 -21.25 L 54.59375 -22.546875 L 35.421875 -20 L 36.171875 -18.390625 L 29.046875 -18.390625 L 29.046875 -30.25 L 44.390625 -30.25 L 44.390625 -49.046875 Z M 66.734375 0 L 44.9375 0 L 36.171875 -18.390625 L 52.375 -18.390625 L 55.234375 -21.25 Z M 66.734375 0 "/></g></g></g><g fill="#00283d" fill-opacity="1"><g transform="translate(69.037709, 86.193645)"><g><path d="M 18.390625 -44.75 L 39.625 -44.75 L 39.625 0 L 18.390625 0 Z M 2.40625 -61.296875 L 55.609375 -61.296875 L 55.609375 -47.9375 L 2.40625 -47.9375 Z M 2.40625 -61.296875 "/></g></g></g><g fill="#00283d" fill-opacity="1"><g transform="translate(127.041582, 86.193645)"><g/></g></g><g fill="#00283d" fill-opacity="1"><g transform="translate(151.517739, 86.193645)"><g><path d="M 25.8125 -25.171875 L 25.8125 0 L 5.40625 0 L 5.40625 -61.296875 L 25.8125 -61.296875 L 25.8125 -37 L 45.359375 -37 L 45.359375 -25.171875 Z M 29.046875 -49.421875 L 29.046875 -61.296875 L 60.96875 -61.296875 L 60.96875 -43.5625 L 41.75 -43.5625 L 41.75 -49.421875 Z M 29.046875 0 L 29.046875 -12.234375 L 40.546875 -12.234375 L 40.546875 -18.390625 L 60.96875 -18.390625 L 60.96875 0 Z M 29.046875 0 "/></g></g></g><g fill="#00283d" fill-opacity="1"><g transform="translate(216.864466, 86.193645)"><g><path d="M 44.15625 -33.578125 L 33.25 -49.515625 L 40.421875 -61.296875 L 62.3125 -61.296875 Z M -1.203125 0 L 18.34375 -28.546875 L 29.28125 -11.921875 L 22.125 0 Z M 63.1875 0 L 40.921875 0 L 0.046875 -61.296875 L 22.078125 -61.296875 Z M 63.1875 0 "/></g></g></g><g fill="#00283d" fill-opacity="1"><g transform="translate(278.839942, 86.193645)"><g><path d="M 24.890625 0 L 16.765625 0 L 4.484375 -12.234375 L 4.484375 -49.046875 L 16.765625 -61.296875 L 24.890625 -61.296875 Z M 28.125 -49.046875 L 28.125 -61.296875 L 49.890625 -61.296875 L 62.125 -49.046875 L 62.125 -36.71875 L 41.703125 -36.71875 L 41.703125 -49.046875 Z M 28.125 0 L 28.125 -12.234375 L 41.703125 -12.234375 L 41.703125 -21.203125 L 62.125 -21.203125 L 62.125 -12.234375 L 49.890625 0 Z M 28.125 0 "/></g></g></g><g fill="#00283d" fill-opacity="1"><g transform="translate(345.341197, 86.193645)"><g><path d="M 45.640625 -6.703125 L 25.59375 -6.703125 L 29.84375 -18.84375 L 40.921875 -18.84375 L 24.53125 -61.296875 L 44.4375 -61.296875 L 68.859375 0 L 48.21875 0 Z M 20.140625 0 L 0.421875 0 L 22.3125 -58.515625 L 31.359375 -34.171875 Z M 20.140625 0 "/></g></g></g><g fill="#00283d" fill-opacity="1"><g transform="translate(406.438143, 86.193645)"><g><path d="M 40.828125 0 L 20.96875 0 L -1.203125 -61.296875 L 19.625 -61.296875 Z M 44.015625 -61.296875 L 64.53125 -61.296875 L 43.328125 -1.84375 L 34.140625 -28.828125 Z M 44.015625 -61.296875 "/></g></g></g><g fill="#00283d" fill-opacity="1"><g transform="translate(461.577706, 86.193645)"><g><path d="M 45.640625 -6.703125 L 25.59375 -6.703125 L 29.84375 -18.84375 L 40.921875 -18.84375 L 24.53125 -61.296875 L 44.4375 -61.296875 L 68.859375 0 L 48.21875 0 Z M 20.140625 0 L 0.421875 0 L 22.3125 -58.515625 L 31.359375 -34.171875 Z M 20.140625 0 "/></g></g></g><g fill="#00283d" fill-opacity="1"><g transform="translate(524.706867, 86.193645)"><g><path d="M 18.390625 -44.75 L 39.625 -44.75 L 39.625 0 L 18.390625 0 Z M 2.40625 -61.296875 L 55.609375 -61.296875 L 55.609375 -47.9375 L 2.40625 -47.9375 Z M 2.40625 -61.296875 "/></g></g></g><g fill="#00283d" fill-opacity="1"><g transform="translate(582.710799, 86.193645)"><g><path d="M 4.484375 -13.078125 L 10.625 -13.078125 L 10.625 -48.265625 L 4.484375 -48.265625 L 4.484375 -61.296875 L 37.1875 -61.296875 L 37.1875 -48.265625 L 31.03125 -48.265625 L 31.03125 -13.078125 L 37.1875 -13.078125 L 37.1875 0 L 4.484375 0 Z M 4.484375 -13.078125 "/></g></g></g><g fill="#00283d" fill-opacity="1"><g transform="translate(624.366431, 86.193645)"><g><path d="M 24.4375 -12.46875 L 32.09375 -12.46875 L 32.09375 0 L 16.390625 0 L 3.96875 -12.234375 L 3.96875 -49.046875 L 16.390625 -61.296875 L 32.09375 -61.296875 L 32.09375 -48.875 L 24.4375 -48.875 Z M 43.140625 -48.875 L 35.328125 -48.875 L 35.328125 -61.296875 L 51.171875 -61.296875 L 63.5625 -49.046875 L 63.5625 -12.234375 L 51.171875 0 L 35.328125 0 L 35.328125 -12.46875 L 43.140625 -12.46875 Z M 43.140625 -48.875 "/></g></g></g><g fill="#00283d" fill-opacity="1"><g transform="translate(691.929824, 86.193645)"><g><path d="M 64.25 0 L 42.546875 0 L 5.40625 -61.296875 L 26.96875 -61.296875 Z M 5.40625 0 L 5.40625 -55.46875 L 23.1875 -26.328125 L 23.1875 0 Z M 64.25 -61.296875 L 64.25 -5.8125 L 46.46875 -35.109375 L 46.46875 -61.296875 Z M 64.25 -61.296875 "/></g></g></g></g></g></svg>